<svg xmlns="http://www.w3.org/2000/svg" viewBox="0 0 64 64">
  <defs>
    <linearGradient id="g" x1="0" y1="0" x2="1" y2="1">
      <stop offset="0%" stop-color="#f1c46a"/>
      <stop offset="50%" stop-color="#d4a04a"/>
      <stop offset="100%" stop-color="#7a1f2c"/>
    </linearGradient>
  </defs>
  <rect width="64" height="64" rx="14" fill="#0d0907"/>
  <g fill="none" stroke="url(#g)" stroke-width="2.6" stroke-linecap="round" stroke-linejoin="round">
    <path d="M19 32c-4 0-8-3-8-8 0-4 4-8 9-8 1-5 6-8 12-8s11 3 12 8c5 0 9 4 9 8 0 5-4 8-8 8"/>
    <path d="M19 32v18c0 1 1 2 2 2h22c1 0 2-1 2-2V32"/>
    <path d="M19 40h26" opacity=".5"/>
  </g>
</svg>
